<?xml version="1.0" ?><svg id="Layer_1" style="enable-background:new 0 0 512 512;" version="1.1" viewBox="0 0 512 512" xml:space="preserve" xmlns="http://www.w3.org/2000/svg" xmlns:xlink="http://www.w3.org/1999/xlink"><g id="XMLID_420_"><path d="M496.5,398.7h-481c-5.2,0-9.5-4.3-9.5-9.5v-7.8c0-5.2,4.3-9.5,9.5-9.5h481c5.2,0,9.5,4.3,9.5,9.5v7.8   C506,394.5,501.7,398.7,496.5,398.7z" id="XMLID_423_"/><rect height="25.1" id="XMLID_422_" width="378.3" x="66.9" y="349.5"/><path d="M263.2,162.6v-20.7c4.8-2.6,8.1-7.6,8.1-13.4c0-8.4-6.8-15.2-15.2-15.2c-8.4,0-15.2,6.8-15.2,15.2   c0,5.8,3.3,10.9,8.1,13.4v20.7C155.8,166.4,81.5,243,81.5,337c0,0.9,0,1.8,0,2.7h349c0-0.9,0-1.8,0-2.7   C430.5,243,356.2,166.4,263.2,162.6z" id="XMLID_421_"/></g></svg>